<svg width="34" height="34" viewBox="0 0 34 34" fill="none" xmlns="http://www.w3.org/2000/svg">
<g clip-path="url(#clip0_1_85)">
<path d="M17 0C26.3898 0 34 7.61016 34 17C34 26.3898 26.3898 34 17 34C7.61016 34 0 26.3898 0 17C0 7.61016 7.61016 0 17 0Z" fill="#0052FF"/>
<path d="M17.0033 22.9766C13.7029 22.9766 11.0268 20.3037 11.0268 17C11.0268 13.6963 13.7029 11.0234 17.0033 11.0234C19.9617 11.0234 22.4188 13.1816 22.8902 16.0039H28.91C28.402 9.86797 23.2654 5.04688 17 5.04688C10.3992 5.04688 5.04688 10.3992 5.04688 17C5.04688 23.6008 10.3992 28.9531 17 28.9531C23.2654 28.9531 28.402 24.132 28.91 17.9961H22.8869C22.4121 20.8184 19.9617 22.9766 17.0033 22.9766Z" fill="white"/>
</g>
<defs>
<clipPath id="clip0_1_85">
<rect width="34" height="34" fill="white"/>
</clipPath>
</defs>
</svg>
