<svg width="162" height="137" viewBox="0 0 162 137" fill="none" xmlns="http://www.w3.org/2000/svg">
<rect x="0.5" y="125.615" width="161" height="11" rx="5.5" fill="#2F3645"/>
<path d="M110.233 40.6666H41.9668C37.5485 40.6666 33.9668 44.2483 33.9668 48.6666V116.933C33.9668 121.352 37.5485 124.933 41.9668 124.933H110.233C114.652 124.933 118.233 121.352 118.233 116.933V48.6666C118.233 44.2483 114.652 40.6666 110.233 40.6666Z" fill="#F39F0E"/>
<path d="M123.033 40.6666H54.7666C50.3483 40.6666 46.7666 44.2483 46.7666 48.6666V116.933C46.7666 121.352 50.3483 124.933 54.7666 124.933H123.033C127.452 124.933 131.033 121.352 131.033 116.933V48.6666C131.033 44.2483 127.452 40.6666 123.033 40.6666Z" fill="#FAB400"/>
<path d="M109.7 73.3226C95.2998 80.7893 83.0332 80.256 69.1665 73.3226L76.0998 88.7893H102.233L109.7 73.3226Z" fill="#F39F0E"/>
<path d="M115.033 59.9894H102.233C99.2877 59.9894 96.8999 62.3772 96.8999 65.3227V83.456C96.8999 86.4016 99.2877 88.7894 102.233 88.7894H115.033C117.979 88.7894 120.367 86.4016 120.367 83.456V65.3227C120.367 62.3772 117.979 59.9894 115.033 59.9894Z" fill="white"/>
<path d="M75.5664 59.9894H62.7664C59.8209 59.9894 57.4331 62.3772 57.4331 65.3227V83.456C57.4331 86.4016 59.8209 88.7894 62.7664 88.7894H75.5664C78.512 88.7894 80.8998 86.4016 80.8998 83.456V65.3227C80.8998 62.3772 78.512 59.9894 75.5664 59.9894Z" fill="white"/>
<path d="M98.3669 103.296C93.2522 108.411 84.9589 108.411 79.8442 103.296" stroke="#222938" stroke-width="13.8667" stroke-linecap="round" stroke-linejoin="round"/>
<path d="M111.945 13.1679C108.318 9.17326 103.449 13.4666 103.449 13.4666C103.449 13.4666 100.708 7.44526 95.5183 10.3999C89.9716 13.5573 95.433 26.3413 101.118 27.3013C107.156 28.3199 116.745 18.4533 111.945 13.1679Z" fill="#FE4E84"/>
<path opacity="0.4" d="M87.4705 24.7413C84.7238 23.1466 82.7611 26.4213 82.7611 26.4213C82.7611 26.4213 80.1531 23.5306 77.7691 26.1119C75.2198 28.8693 80.5531 35.0666 83.9131 34.5919C87.4811 34.0906 91.1025 26.8533 87.4705 24.7413Z" fill="#FE4E84"/>
<path d="M77.7534 1.26391C72.9321 -1.16276 69.9294 4.59191 69.9294 4.59191C69.9294 4.59191 65.2148 -0.0480884 61.4281 4.57058C57.3801 9.50391 67.0601 19.4826 72.7134 18.3412C78.7134 17.1252 84.1321 4.47991 77.7534 1.26924V1.26391Z" fill="#FE4E84"/>
<path d="M70.9055 64.304H65.8228C63.4664 64.304 61.5562 66.2142 61.5562 68.5706V80.2133C61.5562 82.5697 63.4664 84.48 65.8228 84.48H70.9055C73.2619 84.48 75.1722 82.5697 75.1722 80.2133V68.5706C75.1722 66.2142 73.2619 64.304 70.9055 64.304Z" fill="#222938"/>
<path d="M63.8331 72.256H57.4331V64.7893L66.4998 63.1893V69.5893C66.4998 71.0613 65.3051 72.256 63.8331 72.256Z" fill="white"/>
<path d="M110.372 64.304H105.289C102.933 64.304 101.022 66.2142 101.022 68.5706V80.2133C101.022 82.5697 102.933 84.48 105.289 84.48H110.372C112.728 84.48 114.638 82.5697 114.638 80.2133V68.5706C114.638 66.2142 112.728 64.304 110.372 64.304Z" fill="#222938"/>
<path d="M103.3 72.256H96.8999V64.7893L105.967 63.1893V69.5893C105.967 71.0613 104.772 72.256 103.3 72.256Z" fill="white"/>
<path d="M121.316 56.1973C118.249 54.2453 115.055 52.3359 111.556 51.3546C111.231 51.2213 110.751 51.0986 110.409 51.0239C109.476 50.7359 108.345 50.5546 107.401 50.3093C105.812 50.0266 104.356 49.8293 102.719 49.4346C102.031 49.3066 101.567 48.6293 101.764 47.9519C101.849 47.6533 102.041 47.4133 102.287 47.2639C103.183 46.7413 104.127 46.2773 105.113 45.9519C108.185 44.9866 111.535 45.0079 114.596 45.9999C117.716 47.0079 120.511 49.0453 122.313 51.7759C122.82 52.5919 123.268 53.4346 123.545 54.3679C123.903 55.1786 123.7 56.1759 122.756 56.4426C122.297 56.6133 121.732 56.3306 121.311 56.1973H121.316Z" fill="#E1761F"/>
<path d="M54.004 54.8107C56.5 46.224 68.02 42.6614 75.3906 47.2641C76.2653 47.7494 76.068 49.1574 75.108 49.3921C74.1106 49.6854 73.1293 49.8027 72.212 49.9627C70.5746 50.2934 68.8786 50.56 67.2733 51.024C63.556 51.9467 60.1106 53.76 56.9 55.8774C56.7826 55.9414 56.484 56.1547 56.3666 56.1974L55.7 56.4214C54.724 56.7841 53.6893 55.792 53.9986 54.8107H54.004Z" fill="#E1761F"/>
<path d="M75.0334 80.256H72.3667C71.1885 80.256 70.2334 81.2111 70.2334 82.3893V85.056C70.2334 86.2342 71.1885 87.1893 72.3667 87.1893H75.0334C76.2116 87.1893 77.1667 86.2342 77.1667 85.056V82.3893C77.1667 81.2111 76.2116 80.256 75.0334 80.256Z" fill="white"/>
<path d="M114.5 80.256H111.834C110.655 80.256 109.7 81.2111 109.7 82.3893V85.056C109.7 86.2342 110.655 87.1893 111.834 87.1893H114.5C115.678 87.1893 116.634 86.2342 116.634 85.056V82.3893C116.634 81.2111 115.678 80.256 114.5 80.256Z" fill="white"/>
<path d="M63.8333 103.211C73.2589 103.211 80.8999 98.4948 80.8999 92.6774C80.8999 86.86 73.2589 82.144 63.8333 82.144C54.4076 82.144 46.7666 86.86 46.7666 92.6774C46.7666 98.4948 54.4076 103.211 63.8333 103.211Z" fill="#FAB400"/>
<path d="M113.951 103.296C123.367 103.296 131.001 98.5848 131.001 92.7733C131.001 86.9618 123.367 82.2506 113.951 82.2506C104.534 82.2506 96.8999 86.9618 96.8999 92.7733C96.8999 98.5848 104.534 103.296 113.951 103.296Z" fill="#FAB400"/>
<path d="M56.3667 89.856C56.3667 89.856 61.556 87.1893 66.5 89.856" stroke="#FFDE76" stroke-width="5.33333" stroke-linecap="round" stroke-linejoin="round"/>
<path d="M121.433 89.856C121.433 89.856 116.244 87.1893 111.3 89.856" stroke="#FFDE76" stroke-width="5.33333" stroke-linecap="round" stroke-linejoin="round"/>
<path d="M79.8439 96.3627C81.6199 96.3627 83.3906 97.04 84.7453 98.3947C85.9079 99.5573 87.4599 100.203 89.1026 100.203C90.7453 100.203 92.2973 99.5627 93.4599 98.3947C96.1693 95.6853 100.559 95.6853 103.263 98.3947C105.967 101.104 105.972 105.493 103.263 108.197C95.4546 116.005 82.7453 116.005 74.9373 108.197C72.2279 105.488 72.2279 101.099 74.9373 98.3947C76.2919 97.04 78.0679 96.3627 79.8386 96.3627H79.8439Z" fill="#222938"/>
<mask id="mask0_1331_17515" style="mask-type:luminance" maskUnits="userSpaceOnUse" x="72" y="96" width="34" height="19">
<path d="M79.8439 96.3627C81.6199 96.3627 83.3906 97.04 84.7453 98.3947C85.9079 99.5573 87.4599 100.203 89.1026 100.203C90.7453 100.203 92.2973 99.5627 93.4599 98.3947C96.1693 95.6853 100.559 95.6853 103.263 98.3947C105.967 101.104 105.972 105.493 103.263 108.197C95.4546 116.005 82.7453 116.005 74.9373 108.197C72.2279 105.488 72.2279 101.099 74.9373 98.3947C76.2919 97.04 78.0679 96.3627 79.8386 96.3627H79.8439Z" fill="white"/>
</mask>
<g mask="url(#mask0_1331_17515)">
<path d="M79.625 104.784C81.113 104.955 83.3317 106.395 85.7637 106.731C88.1957 107.067 90.8357 106.293 92.5103 106.891C93.385 107.2 94.0357 107.557 94.3503 107.957C95.8543 109.893 95.5023 112.688 93.561 114.192C87.9717 118.528 79.8917 117.509 75.5557 111.915C74.0517 109.979 74.4037 107.184 76.345 105.68C77.3157 104.928 78.4943 104.64 79.625 104.784Z" fill="#FE4E84"/>
</g>
</svg>
