<svg xmlns="http://www.w3.org/2000/svg" viewBox="0 0 152 178" fill="none">
  <rect x="0.5" y="167" width="151" height="11" rx="5.5" fill="#2F3645"/>
  <path d="M103.5 82.3845H34.5769C30.1162 82.3845 26.5 86.0007 26.5 90.4614V159.385C26.5 163.845 30.1162 167.461 34.5769 167.461H103.5C107.961 167.461 111.577 163.845 111.577 159.385V90.4614C111.577 86.0007 107.961 82.3845 103.5 82.3845Z" fill="#F39F0E"/>
  <path d="M116.423 82.3845H47.5C43.0393 82.3845 39.4231 86.0007 39.4231 90.4614V159.385C39.4231 163.845 43.0393 167.461 47.5 167.461H116.423C120.884 167.461 124.5 163.845 124.5 159.385V90.4614C124.5 86.0007 120.884 82.3845 116.423 82.3845Z" fill="#FAB400"/>
  <path d="M102.961 115.354C88.4229 122.893 76.0383 122.354 62.0383 115.354L69.0383 130.97H95.4229L102.961 115.354Z" fill="#F39F0E"/>
  <path d="M108.346 101.893H95.4229C92.4491 101.893 90.0383 104.304 90.0383 107.278V125.585C90.0383 128.559 92.4491 130.97 95.4229 130.97H108.346C111.32 130.97 113.731 128.559 113.731 125.585V107.278C113.731 104.304 111.32 101.893 108.346 101.893Z" fill="white"/>
  <path d="M68.5001 101.893H55.577C52.6032 101.893 50.1924 104.304 50.1924 107.278V125.585C50.1924 128.559 52.6032 130.97 55.577 130.97H68.5001C71.4739 130.97 73.8847 128.559 73.8847 125.585V107.278C73.8847 104.304 71.4739 101.893 68.5001 101.893Z" fill="white"/>
  <path d="M63.7937 106.249H58.6622C56.2831 106.249 54.3545 108.178 54.3545 110.557V122.311C54.3545 124.69 56.2831 126.619 58.6622 126.619H63.7937C66.1728 126.619 68.1014 124.69 68.1014 122.311V110.557C68.1014 108.178 66.1728 106.249 63.7937 106.249Z" fill="#222938"/>
  <path d="M56.6539 114.278H50.1924V106.739L59.3462 105.124V111.585C59.3462 113.071 58.1401 114.278 56.6539 114.278Z" fill="white"/>
  <path d="M103.64 106.249H98.5084C96.1293 106.249 94.2007 108.178 94.2007 110.557V122.311C94.2007 124.69 96.1293 126.619 98.5084 126.619H103.64C106.019 126.619 107.948 124.69 107.948 122.311V110.557C107.948 108.178 106.019 106.249 103.64 106.249Z" fill="#222938"/>
  <path d="M96.4999 114.278H90.0383V106.739L99.1922 105.124V111.585C99.1922 113.071 97.986 114.278 96.4999 114.278Z" fill="white"/>
  <path d="M114.689 98.0644C111.593 96.0937 108.368 94.166 104.835 93.1752C104.507 93.0406 104.022 92.9168 103.678 92.8414C102.735 92.5506 101.594 92.3675 100.641 92.1198C99.0362 91.8344 97.5662 91.6352 95.9131 91.2368C95.2185 91.1075 94.75 90.4237 94.9492 89.7398C95.0354 89.4383 95.2293 89.196 95.4769 89.0452C96.3816 88.5175 97.3346 88.0491 98.3308 87.7206C101.432 86.746 104.814 86.7675 107.905 87.7691C111.055 88.7868 113.876 90.8437 115.696 93.6006C116.208 94.4244 116.66 95.2752 116.94 96.2175C117.301 97.036 117.096 98.0429 116.143 98.3121C115.68 98.4844 115.109 98.1991 114.684 98.0644H114.689Z" fill="#E1761F"/>
  <path d="M46.7301 96.6644C49.2501 87.9952 60.8809 84.3983 68.3224 89.0452C69.2055 89.5352 69.0063 90.9568 68.0371 91.1937C67.0301 91.4898 66.0394 91.6083 65.1132 91.7698C63.4601 92.1037 61.7478 92.3729 60.1271 92.8414C56.374 93.7729 52.8955 95.6037 49.654 97.7414C49.5355 97.806 49.234 98.0214 49.1155 98.0645L48.4424 98.2906C47.4571 98.6568 46.4124 97.6552 46.7247 96.6644H46.7301Z" fill="#E1761F"/>
  <path d="M67.9616 122.354H65.2693C64.0798 122.354 63.1155 123.319 63.1155 124.508V127.201C63.1155 128.39 64.0798 129.354 65.2693 129.354H67.9616C69.1512 129.354 70.1155 128.39 70.1155 127.201V124.508C70.1155 123.319 69.1512 122.354 67.9616 122.354Z" fill="white"/>
  <path d="M107.808 122.354H105.115C103.926 122.354 102.961 123.319 102.961 124.508V127.201C102.961 128.39 103.926 129.354 105.115 129.354H107.808C108.997 129.354 109.961 128.39 109.961 127.201V124.508C109.961 123.319 108.997 122.354 107.808 122.354Z" fill="white"/>
  <path d="M56.6539 145.53C66.1702 145.53 73.8846 140.769 73.8846 134.895C73.8846 129.022 66.1702 124.261 56.6539 124.261C47.1376 124.261 39.4231 129.022 39.4231 134.895C39.4231 140.769 47.1376 145.53 56.6539 145.53Z" fill="#FAB400"/>
  <path d="M107.253 145.616C116.76 145.616 124.468 140.86 124.468 134.992C124.468 129.125 116.76 124.368 107.253 124.368C97.7456 124.368 90.0383 129.125 90.0383 134.992C90.0383 140.86 97.7456 145.616 107.253 145.616Z" fill="#FAB400"/>
  <g opacity="0.5">
    <path d="M76.0198 160.331C76.8006 160.444 77.5921 160.703 78.3244 160.956C79.9237 161.381 81.7383 161.408 83.359 161.08C84.506 160.902 87.1444 159.481 87.4514 161.376C87.489 162.221 86.6437 162.744 86.1644 163.309C84.8667 164.661 82.9444 165.361 81.1298 165.35C79.5575 165.361 77.8829 164.892 76.6067 163.88C75.9875 163.347 75.4544 162.814 74.9483 162.151C74.3237 161.376 75.056 160.159 76.0252 160.331H76.0198Z" fill="#EFA233"/>
  </g>
  <path d="M61.1475 141.722C70.9906 142.648 91.199 143.951 100.224 140.672C101.726 140.123 103.282 141.345 103.094 142.934C102.469 148.221 94.6829 157.197 82.4652 157.854C70.3552 158.511 60.9967 149.271 58.9883 144.7C58.3367 143.214 59.5375 141.571 61.1529 141.722H61.1475Z" fill="#0A0C41"/>
  <mask id="mask0_1331_17521" style="mask-type:luminance" maskUnits="userSpaceOnUse" x="58" y="140" width="46" height="18">
    <path d="M61.1475 141.722C70.9906 142.648 91.199 143.951 100.224 140.672C101.726 140.123 103.282 141.345 103.094 142.934C102.469 148.221 94.6829 157.197 82.4652 157.854C70.3552 158.511 60.9967 149.271 58.9883 144.7C58.3367 143.214 59.5375 141.571 61.1529 141.722H61.1475Z" fill="white"/>
  </mask>
  <g mask="url(#mask0_1331_17521)">
    <path d="M72.0191 152.626C73.3975 152.782 75.4652 154.123 77.7214 154.435C79.9829 154.747 82.4329 154.031 83.9891 154.581C84.8022 154.871 85.4106 155.2 85.696 155.571C87.0906 157.37 86.7675 159.965 84.9637 161.36C79.7729 165.387 72.2668 164.44 68.2391 159.249C66.8445 157.451 67.1675 154.855 68.9714 153.461C69.8706 152.761 70.9691 152.497 72.0191 152.626Z" fill="#D35683"/>
    <path d="M88.5551 147.683L74.2159 147.995C71.9759 148.194 69.9944 146.541 69.7951 144.301L69.2297 141.474L91.9959 140.403L92.2543 143.262C92.4536 145.502 90.8005 147.484 88.5605 147.683H88.5551Z" fill="white"/>
  </g>
  <path d="M49.1152 132.047C49.1152 132.047 54.3545 129.354 59.346 132.047" stroke="#FFDE76" stroke-width="5.38462" stroke-linecap="round" stroke-linejoin="round"/>
  <path d="M114.808 132.047C114.808 132.047 109.568 129.354 104.577 132.047" stroke="#FFDE76" stroke-width="5.38462" stroke-linecap="round" stroke-linejoin="round"/>
  <path d="M71.7995 3.66033L51.3769 74.3814C50.3238 78.0337 52.2413 82.0026 55.0658 82.0208L99.8067 82.2887C102.759 82.3069 104.731 78.0398 103.477 74.3266C98.0657 58.2929 85.8609 22.1472 79.4511 3.30727C77.8928 -1.2703 73.1569 -1.04507 71.7934 3.66642L71.7995 3.66033Z" fill="#955CFF"/>
  <path d="M103.477 74.3266C98.0653 58.2929 85.8604 22.1471 79.4506 3.30726C78.7749 1.31066 77.4905 0.233226 76.1453 0.0323486L63.0693 82.1426L99.8062 82.2887C102.758 82.3069 104.731 78.0398 103.477 74.3266Z" fill="#A777FF"/>
  <g style="mix-blend-mode:luminosity" opacity="0.5">
    <mask id="mask1_1331_17521" style="mask-type:alpha" maskUnits="userSpaceOnUse" x="41" y="0" width="73" height="84">
      <path fill-rule="evenodd" clip-rule="evenodd" d="M71.8068 3.66033L51.3843 74.3814C51.1972 75.0303 51.1038 75.6893 51.0927 76.3343L41.6646 76.2767C41.3481 76.2748 41.0848 76.5288 41.0828 76.8514L41.0491 82.3724C41.0471 82.6889 41.3012 82.9523 41.6238 82.9542L113.104 83.3909C113.421 83.3928 113.684 83.1388 113.686 82.8161L113.72 77.2952C113.722 76.9786 113.468 76.7153 113.145 76.7133L103.869 76.6567C103.865 75.8848 103.744 75.0939 103.485 74.3266C98.0731 58.2929 85.8683 22.1472 79.4585 3.30727C79.4257 3.2112 79.3916 3.11724 79.3562 3.02539C78.6848 1.27745 77.5247 0.29904 76.297 0.0574C76.249 0.0479404 76.2008 0.03961 76.1526 0.0324066L76.1525 0.0327833C74.4127 -0.221834 72.57 1.00832 71.8008 3.66642L71.8068 3.66033Z" fill="#A777FF"/>
    </mask>
    <g mask="url(#mask1_1331_17521)">
      <path d="M74.0795 41.8387L75.2331 45.3891L78.9661 45.3891L75.946 47.5833L77.0996 51.1336L74.0795 48.9394L71.0594 51.1336L72.213 47.5833L69.1929 45.3891L72.9259 45.3891L74.0795 41.8387Z" fill="#5D1AD9"/>
      <path d="M59.3993 49.1788L60.5529 52.7292L64.2859 52.7292L61.2658 54.9234L62.4194 58.4737L59.3993 56.2795L56.3792 58.4737L57.5328 54.9234L54.5127 52.7292L58.2457 52.7292L59.3993 49.1788Z" fill="#5D1AD9"/>
      <path d="M84.3559 17.6162L85.5094 21.1665L89.2425 21.1665L86.2224 23.3608L87.376 26.9111L84.3559 24.7169L81.3358 26.9111L82.4893 23.3608L79.4692 21.1665L83.2023 21.1665L84.3559 17.6162Z" fill="#5D1AD9"/>
      <path d="M68.2074 13.9463L69.361 17.4966L73.094 17.4966L70.0739 19.6908L71.2275 23.2412L68.2074 21.047L65.1873 23.2412L66.3409 19.6908L63.3208 17.4966L67.0539 17.4966L68.2074 13.9463Z" fill="#5D1AD9"/>
      <path d="M73.7126 27.1584L74.9486 30.7088L78.9483 30.7088L75.7125 32.903L76.9484 36.4533L73.7126 34.2591L70.4768 36.4533L71.7128 32.903L68.477 30.7088L72.4766 30.7088L73.7126 27.1584Z" fill="#5D1AD9"/>
      <path d="M62.3354 32.2965L63.4889 35.8468L67.222 35.8468L64.2019 38.0411L65.3554 41.5914L62.3354 39.3972L59.3153 41.5914L60.4688 38.0411L57.4487 35.8468L61.1818 35.8468L62.3354 32.2965Z" fill="#5D1AD9"/>
      <path d="M78.1165 4.40405L79.1877 7.95438L82.6541 7.95438L79.8497 10.1486L80.9209 13.6989L78.1165 11.5047L75.3122 13.6989L76.3833 10.1486L73.579 7.95438L77.0454 7.95438L78.1165 4.40405Z" fill="#5D1AD9"/>
      <path d="M87.2919 34.4987L88.4455 38.049L92.1785 38.049L89.1584 40.2432L90.312 43.7935L87.2919 41.5993L84.2718 43.7935L85.4254 40.2432L82.4053 38.049L86.1383 38.049L87.2919 34.4987Z" fill="#5D1AD9"/>
      <path d="M95.3659 47.7108L96.5194 51.2611L100.252 51.2611L97.2324 53.4554L98.386 57.0057L95.3659 54.8115L92.3458 57.0057L93.4994 53.4554L90.4793 51.2611L94.2123 51.2611L95.3659 47.7108Z" fill="#5D1AD9"/>
    </g>
  </g>
  <path d="M99.4657 59.9182L54.9135 59.6504L51.3768 72.7561C50.3176 76.6702 52.2351 80.9252 55.0657 80.9373L99.8066 81.2052C102.759 81.2234 104.731 76.6459 103.483 72.6709C102.388 69.189 101.018 64.8245 99.4718 59.9121L99.4657 59.9182Z" fill="#EB3E77"/>
  <path d="M99.4659 59.9182L54.9137 59.6504L51.3771 72.7561C50.3179 76.6702 52.2354 80.9252 55.0659 80.9373H67.4735C70.4258 80.9556 68.7214 78.4772 67.4735 74.5023C66.3778 71.0204 69.0197 64.6383 67.4735 59.7259L99.4659 59.9182Z" fill="#E41E5F"/>
  <path d="M41.6574 76.2767L113.138 76.7134C113.461 76.7154 113.715 76.9787 113.713 77.2952L113.679 82.8162C113.677 83.1388 113.414 83.3928 113.097 83.3909L41.6166 82.9543C41.294 82.9523 41.0399 82.689 41.0418 82.3725L41.0756 76.8515C41.0775 76.5289 41.3408 76.2748 41.6574 76.2767Z" fill="#A777FF"/>
  <path d="M41.2469 76.2742L61.9915 76.4009C62.0851 76.4015 62.1577 76.6637 62.1558 76.9802L62.122 82.5012C62.1201 82.8238 62.0426 83.079 61.9507 83.0785L41.2061 82.9518C41.1125 82.9512 41.0399 82.689 41.0418 82.3725L41.0756 76.8515C41.0775 76.5289 41.1551 76.2737 41.2469 76.2742Z" fill="#955CFF"/>
  <path d="M86.5422 58.1642L68.0922 58.0744C67.5779 58.0719 67.1577 58.4911 67.1537 59.0107L67.0207 76.3586C67.0168 76.8782 67.4305 77.3015 67.9449 77.304L86.3948 77.3938C86.9092 77.3963 87.3294 76.9771 87.3333 76.4575L87.4663 59.1096C87.4703 58.59 87.0565 58.1667 86.5422 58.1642Z" fill="#E38539"/>
  <path d="M86.6767 58.0781L68.64 57.9903C68.2713 57.9885 67.9708 58.1943 67.9689 58.4499L67.8339 76.0563C67.832 76.3119 68.1293 76.5205 68.498 76.5223L86.5347 76.6102C86.9034 76.612 87.2039 76.4062 87.2058 76.1506L87.3407 58.5442C87.3427 58.2886 87.0454 58.0799 86.6767 58.0781Z" fill="#FAC848"/>
  <path d="M71.3212 61.1496L82.2415 61.2163C82.4484 61.2176 82.612 61.3401 82.6111 61.493L82.5368 73.6572C82.5357 73.8326 82.34 73.9754 82.1026 73.9739L71.2981 73.9079C71.0607 73.9065 70.8668 73.7613 70.8678 73.5859L70.9421 61.4217C70.9431 61.2688 71.1143 61.1439 71.3212 61.1451L71.3212 61.1496Z" fill="#EB3E77"/>
  <g filter="url(#filter0_d_1331_17521)">
    <path d="M89.5496 69.0918L82.6102 69.0492C81.3684 69.0431 80.358 68.0204 80.364 66.7725V66.7604C80.3701 65.5186 81.3928 64.5081 82.6407 64.5142L89.5801 64.5568C90.8219 64.5629 91.8323 65.5855 91.8262 66.8334V66.8456C91.8202 68.0874 90.7975 69.0979 89.5496 69.0918Z" fill="#FAC848"/>
  </g>
  <path d="M76.6384 120.885C76.6384 129.392 69.5285 136.385 60.6384 136.385C51.7484 136.385 44.6384 129.392 44.6384 120.885C44.6384 112.377 51.7484 105.385 60.6384 105.385C69.5285 105.385 76.6384 112.377 76.6384 120.885Z" stroke="#141924" stroke-width="4"/>
  <path d="M116.638 120.885C116.638 129.392 109.528 136.385 100.638 136.385C91.7484 136.385 84.6384 129.392 84.6384 120.885C84.6384 112.377 91.7484 105.385 100.638 105.385C109.528 105.385 116.638 112.377 116.638 120.885Z" stroke="#141924" stroke-width="4"/>
  <path d="M77.6384 121.385V121.385C79.5858 120.736 81.6911 120.736 83.6384 121.385V121.385" stroke="#141924" stroke-width="3"/>
  <defs>
    <filter id="filter0_d_1331_17521" x="79.63" y="64.5142" width="12.1962" height="5.31165" filterUnits="userSpaceOnUse" color-interpolation-filters="sRGB">
      <feFlood flood-opacity="0" result="BackgroundImageFix"/>
      <feColorMatrix in="SourceAlpha" type="matrix" values="0 0 0 0 0 0 0 0 0 0 0 0 0 0 0 0 0 0 127 0" result="hardAlpha"/>
      <feOffset dx="-0.734013" dy="0.734013"/>
      <feComposite in2="hardAlpha" operator="out"/>
      <feColorMatrix type="matrix" values="0 0 0 0 0 0 0 0 0 0 0 0 0 0 0 0 0 0 0.25 0"/>
      <feBlend mode="normal" in2="BackgroundImageFix" result="effect1_dropShadow_1331_17521"/>
      <feBlend mode="normal" in="SourceGraphic" in2="effect1_dropShadow_1331_17521" result="shape"/>
    </filter>
  </defs>
</svg>