<svg viewBox="0 0 364 97" fill="none" xmlns="http://www.w3.org/2000/svg" class="h-[28px]"><g clip-path="url(#logoV2_svg__a)"><path d="M216.018 86.428c-2.611 0-4.454-.384-6.374-1.075-1.69-.614-3.687-1.997-3.687-4.839 0-2.841 2.227-4.762 4.608-4.762.922 0 1.46.154 1.92.308.999.307 1.613.46 2.458.46 2.074 0 3.072-.384 4.148-2.457l.384-.922-14.056-32.566c-.307-.768-.614-1.92-.614-2.688 0-3.302 2.534-5.606 5.76-5.606 2.919 0 4.609 1.612 5.607 4.377l8.909 23.964 8.603-23.887c.921-2.457 2.611-4.454 5.606-4.454 2.996 0 5.53 2.304 5.53 5.376 0 .922-.307 2.227-.537 2.765L229.92 74.908c-3.456 8.371-6.912 11.52-13.902 11.52ZM342.35 74.83c-7.681 0-13.441-2.38-17.819-6.144-1.075-.921-1.997-2.534-1.997-4.224 0-3.072 2.611-5.684 5.684-5.684 1.689 0 2.841.692 3.763 1.46 3.072 2.611 6.298 3.994 10.522 3.994 4.455 0 7.604-2.535 7.604-6.529v-.154c0-4.377-3.917-6.835-10.522-6.835h-1.843c-2.765 0-5.07-2.304-5.07-5.07 0-1.612.692-2.995 2.535-4.838l10.445-10.522h-16.513c-2.765 0-5.069-2.305-5.069-5.07s2.304-5.069 5.069-5.069h26.191c3.456 0 5.991 1.997 5.991 5.223 0 2.919-1.383 4.532-3.533 6.605l-10.523 10.062c7.297 1.229 14.44 5.069 14.44 15.054v.153c0 10.139-7.373 17.589-19.355 17.589ZM294.533 68.533V38.118a5.834 5.834 0 0 1 5.837-5.837 5.834 5.834 0 0 1 5.837 5.837v1.843c1.69-3.994 4.455-7.68 7.911-7.68 3.61 0 5.684 2.38 5.684 5.683 0 3.072-1.997 4.916-4.378 5.453-5.914 1.383-9.217 5.914-9.217 14.21v10.906a5.834 5.834 0 0 1-5.837 5.837 5.834 5.834 0 0 1-5.837-5.837ZM259.825 50.1h17.589c-.692-5.223-3.764-8.757-8.679-8.757-4.839 0-7.988 3.457-8.91 8.756Zm24.347 19.738c-3.609 3.073-8.295 4.993-14.285 4.993-12.366 0-21.506-8.68-21.506-21.275v-.154c0-11.751 8.372-21.429 20.354-21.429 13.748 0 19.815 11.29 19.815 19.816 0 3.38-2.381 5.607-5.453 5.607h-23.118c1.152 5.3 4.838 8.064 10.061 8.064 3.226 0 5.914-.998 8.295-2.765.845-.614 1.613-.921 2.842-.921 2.611 0 4.532 1.997 4.532 4.608 0 1.536-.692 2.688-1.537 3.456ZM186.484 36.712c1.285 1.346 2.142 1.767 2.399.589.514-2.609 2.142-3.871 4.799-3.871h.171c2.828 0 4.456 1.515 4.456 4.376v31.22c0 2.776-1.543 4.29-4.37 4.29h-.257c-2.742 0-4.285-1.009-4.542-2.944-.257-1.683-1.285-1.767-2.57-.505-2.657 2.608-6.598 4.628-11.825 4.628-10.711 0-18.679-8.668-18.679-20.448 0-12.539 8.225-21.795 19.279-21.795 4.798 0 8.568 1.851 11.139 4.46Zm-8.826 28.442c6.318-.774 9.854-6.142 9.854-11.78 0-5.723-2.999-11.697-9.939-11.697-6.136 0-11.771 2.558-11.771 11.696 0 9.14 5.539 12.556 11.856 11.781ZM136 68.96V23.645a5.834 5.834 0 0 1 5.837-5.838 5.834 5.834 0 0 1 5.837 5.838V68.96c0 3.226-2.451 5.546-5.677 5.546-3.226 0-5.997-2.32-5.997-5.546Z" fill="#fff"></path><rect x="-4" y="10.266" width="81.906" height="91.935" rx="35.103" transform="rotate(-8.178 -4 10.266)" fill="#FEA421"></rect><rect x="14.2" y="7.65" width="81.906" height="91.935" rx="35.103" transform="rotate(-8.178 14.2 7.65)" fill="#FFC337"></rect><rect x="14.2" y="7.65" width="81.906" height="91.935" rx="35.103" transform="rotate(-8.178 14.2 7.65)" fill="#FFC337"></rect><rect x="14.2" y="7.65" width="81.906" height="91.935" rx="35.103" transform="rotate(-8.178 14.2 7.65)" fill="#FFC337"></rect><rect x="41.882" y="35.758" width="6.686" height="13.372" rx="2.181" transform="rotate(-8.178 41.882 35.758)" fill="#000"></rect><rect x="70.009" y="31.716" width="6.686" height="13.372" rx="2.181" transform="rotate(-8.178 70.009 31.716)" fill="#000"></rect></g><defs><clipPath id="logoV2_svg__a"><path fill="#fff" d="M0 0h364v97H0z"></path></clipPath></defs></svg>