<svg width="40" height="40" viewBox="0 0 40 40" fill="none" xmlns="http://www.w3.org/2000/svg">
<path d="M34.4131 4.457L21.9209 13.7351L24.231 8.26114L34.4131 4.457Z" fill="#E2761B" stroke="#E2761B" stroke-linecap="round" stroke-linejoin="round"/>
<path d="M5.5744 4.457L17.9661 13.823L15.769 8.26114L5.5744 4.457ZM29.9184 25.9636L26.5913 31.0609L33.71 33.0195L35.7564 26.0766L29.9184 25.9636ZM4.25613 26.0766L6.29003 33.0195L13.4087 31.0609L10.0816 25.9636L4.25613 26.0766Z" fill="#E4761B" stroke="#E4761B" stroke-linecap="round" stroke-linejoin="round"/>
<path d="M13.0069 17.3509L11.0232 20.3515L18.0916 20.6654L17.8405 13.0697L13.0069 17.3509ZM26.9805 17.3509L22.0841 12.9818L21.9209 20.6654L28.9768 20.3515L26.9805 17.3509ZM13.4087 31.0609L17.6522 28.9893L13.9862 26.1268L13.4087 31.0609ZM22.3352 28.9893L26.5913 31.0609L26.0013 26.1268L22.3352 28.9893Z" fill="#E4761B" stroke="#E4761B" stroke-linecap="round" stroke-linejoin="round"/>
<path d="M26.5913 31.0609L22.3352 28.9893L22.6742 31.764L22.6365 32.9316L26.5913 31.0609ZM13.4087 31.0609L17.3635 32.9316L17.3384 31.764L17.6522 28.9893L13.4087 31.0609Z" fill="#D7C1B3" stroke="#D7C1B3" stroke-linecap="round" stroke-linejoin="round"/>
<path d="M17.4262 24.2938L13.8857 23.2517L16.3842 22.1092L17.4262 24.2938ZM22.5612 24.2938L23.6033 22.1092L26.1142 23.2517L22.5612 24.2938Z" fill="#233447" stroke="#233447" stroke-linecap="round" stroke-linejoin="round"/>
<path d="M13.4087 31.0609L14.0113 25.9636L10.0816 26.0766L13.4087 31.0609ZM25.9887 25.9636L26.5913 31.0609L29.9184 26.0766L25.9887 25.9636ZM28.9768 20.3515L21.9209 20.6654L22.5738 24.2938L23.6158 22.1092L26.1268 23.2517L28.9768 20.3515ZM13.8857 23.2517L16.3967 22.1092L17.4262 24.2938L18.0916 20.6654L11.0232 20.3515L13.8857 23.2517Z" fill="#CD6116" stroke="#CD6116" stroke-linecap="round" stroke-linejoin="round"/>
<path d="M11.0232 20.3515L13.9862 26.1268L13.8857 23.2517L11.0232 20.3515ZM26.1268 23.2517L26.0013 26.1268L28.9768 20.3515L26.1268 23.2517ZM18.0916 20.6654L17.4262 24.2938L18.2549 28.575L18.4432 22.9379L18.0916 20.6654ZM21.9209 20.6654L21.5819 22.9253L21.7326 28.575L22.5738 24.2938L21.9209 20.6654Z" fill="#E4751F" stroke="#E4751F" stroke-linecap="round" stroke-linejoin="round"/>
<path d="M22.5738 24.2938L21.7326 28.575L22.3352 28.9893L26.0012 26.1268L26.1268 23.2517L22.5738 24.2938ZM13.8857 23.2517L13.9862 26.1268L17.6522 28.9893L18.2549 28.575L17.4262 24.2938L13.8857 23.2517Z" fill="#F6851B" stroke="#F6851B" stroke-linecap="round" stroke-linejoin="round"/>
<path d="M22.6365 32.9316L22.6742 31.764L22.3603 31.4878H17.6271L17.3384 31.764L17.3635 32.9316L13.4087 31.0609L14.7897 32.1908L17.5895 34.1368H22.398L25.2103 32.1908L26.5913 31.0609L22.6365 32.9316Z" fill="#C0AD9E" stroke="#C0AD9E" stroke-linecap="round" stroke-linejoin="round"/>
<path d="M22.3352 28.9893L21.7326 28.575H18.2549L17.6522 28.9893L17.3383 31.764L17.6271 31.4878H22.3603L22.6742 31.764L22.3352 28.9893Z" fill="#161616" stroke="#161616" stroke-linecap="round" stroke-linejoin="round"/>
<path d="M34.9404 14.3377L36.0075 9.21532L34.4131 4.457L22.3352 13.4212L26.9805 17.3509L33.5468 19.2718L35.0031 17.5769L34.3754 17.1249L35.3798 16.2084L34.6014 15.6058L35.6058 14.8399L34.9404 14.3377ZM3.99246 9.21532L5.05963 14.3377L4.38167 14.8399L5.38606 15.6058L4.62021 16.2084L5.6246 17.1249L4.99686 17.5769L6.44067 19.2718L13.0069 17.3509L17.6522 13.4212L5.57438 4.457L3.99246 9.21532Z" fill="#763D16" stroke="#763D16" stroke-linecap="round" stroke-linejoin="round"/>
<path d="M33.5468 19.2718L26.9806 17.3509L28.9768 20.3515L26.0013 26.1268L29.9184 26.0766H35.7564L33.5468 19.2718ZM13.0069 17.3509L6.44069 19.2718L4.25613 26.0766H10.0816L13.9862 26.1268L11.0232 20.3515L13.0069 17.3509ZM21.9209 20.6654L22.3352 13.4212L24.2436 8.26114H15.769L17.6522 13.4212L18.0917 20.6654L18.2423 22.9504L18.2549 28.575H21.7326L21.7577 22.9504L21.9209 20.6654Z" fill="#F6851B" stroke="#F6851B" stroke-linecap="round" stroke-linejoin="round"/>
</svg>
