<svg viewBox="0 0 573 405" fill="none" xmlns="http://www.w3.org/2000/svg">
<path opacity="0.2" d="M62.0001 402.718C62.0384 401.403 62.1343 400.295 62.2637 399.052C63.9464 384.42 78.9149 363.602 86.0049 351C132.005 309.5 166.579 291.383 211.19 279.743C217.129 278.158 223.145 276.785 229.142 275.557C286.236 264.597 344.068 263.513 401.526 260.169C440.202 257.785 478.84 256.643 516.456 248.409C521.447 247.22 526.269 245.827 530.531 244.189C534.049 242.855 537.664 241.096 540.118 239.054C540.531 238.707 540.78 238.437 540.929 238.288C541.072 238.138 541.096 238.129 541.111 238.211C541.12 238.288 541.13 238.442 541.163 238.48C541.192 238.524 541.25 238.447 541.231 238.172C541.154 237.194 540.531 235.763 540.022 234.795C537.026 228.99 532.87 224.37 527.597 219.966C511.413 206.954 491.423 199.992 471.409 194.231C417.249 179.253 360.755 176.979 305.085 170.104C300.646 169.458 296.116 168.736 291.648 167.565C288.758 166.77 285.838 165.908 282.971 163.749C279.376 161.085 277.799 155.873 280.134 151.614C281.73 148.603 284.084 147.095 286.73 145.452C351.935 104.859 408.122 81.0647 486.213 82.0282C508.945 82.0523 531.571 83.5457 554.135 85.468C520.263 84.4129 486.256 84.1094 452.675 88.6813C393.41 95.9463 342.035 124.414 293.767 158.272C293.503 158.455 293.379 158.556 293.206 158.691C293.067 158.807 292.928 158.927 292.866 158.999C292.794 159.072 292.76 159.125 292.827 159.072C292.885 159.014 293.038 158.869 293.288 158.416C294.443 156.398 293.777 153.184 292.084 151.831C291.811 151.609 292.008 151.744 292.315 151.84C296.83 153.276 302.051 153.604 306.912 154.105C312.372 154.572 317.956 154.885 323.56 155.164C389.681 158.98 531.351 156.484 567.51 220.877C573.871 232.049 574.59 245.355 567.189 256.363C561.297 265.17 552.256 270.614 543.301 274.67C531.48 279.897 519.745 282.923 507.55 285.664C429.522 301.442 349.303 302.502 271.371 316.376C232.479 323.333 191.061 334.38 162.696 363.093C151.944 374.366 143.986 387.533 142.045 402.718C142.021 403.19 141.958 403.58 141.982 403.97C141.982 404.014 141.992 404.004 141.992 403.99C141.992 403.99 142.001 403.927 142.001 403.898C142.006 403.768 142.011 403.932 142.025 403.373L62.0049 402.718H62.0001Z" fill="url(#paint0_linear_1179_18)"/>
<path d="M18.6202 161L20.0779 169.163L28.2405 170.62L20.0779 172.078L18.6202 180.241L17.1626 172.078L9 170.62L17.1626 169.163L18.6202 161Z" stroke="white" stroke-miterlimit="10"/>
<path d="M329.505 365.855C336.152 365.855 336.152 355.546 329.505 355.546C322.858 355.546 322.858 365.855 329.505 365.855Z" fill="#90CBD3"/>
<g style="mix-blend-mode:luminosity">
<path d="M344.626 209.16C351.273 209.16 351.273 198.852 344.626 198.852C337.979 198.852 337.979 209.16 344.626 209.16Z" fill="#5A2980"/>
</g>
<path d="M488.241 35.7008C492.563 35.7008 492.563 29 488.241 29C483.92 29 483.92 35.7008 488.241 35.7008Z" fill="white"/>
<path d="M565.241 140.701C569.562 140.701 569.562 134 565.241 134C560.919 134 560.919 140.701 565.241 140.701Z" fill="white"/>
<path d="M232.62 129L234.078 137.163L242.24 138.62L234.078 140.078L232.62 148.241L231.163 140.078L223 138.62L231.163 137.163L232.62 129Z" stroke="white" stroke-miterlimit="10"/>
<path d="M260.332 320L261.363 327.835L268.663 324.81L262.393 329.62L268.663 334.43L261.363 331.406L260.332 339.241L259.301 331.406L252 334.43L258.27 329.62L252 324.81L259.301 327.835L260.332 320Z" fill="#F3D37F"/>
<path d="M375.332 0L376.363 7.83476L383.663 4.81013L377.393 9.62026L383.663 14.4304L376.363 11.4058L375.332 19.2405L374.301 11.4058L367 14.4304L373.27 9.62026L367 4.81013L374.301 7.83476L375.332 0Z" fill="#F3D37F"/>
<path d="M472.225 346.798L473.438 354.752L481.376 353.447L474.186 357.055L477.881 364.203L472.225 358.48L466.572 364.203L470.265 357.055L463.075 353.447L471.013 354.752L472.225 346.798Z" fill="white"/>
<rect x="214" y="190.591" width="95" height="94" rx="20" transform="rotate(-15 214 190.591)" fill="#079F31"/>
<rect x="214" y="190.591" width="95" height="81.2694" rx="20" transform="rotate(-15 214 190.591)" fill="#24E059"/>
<rect x="214" y="190.588" width="95" height="81.2726" rx="20" transform="rotate(-15 214 190.588)" fill="#18D54D"/>
<path fill-rule="evenodd" clip-rule="evenodd" d="M235.242 186.229C224.535 188.946 218.294 199.764 221.302 210.392L230.963 244.53C232.147 248.715 234.589 252.246 237.767 254.824C236.079 252.739 234.779 250.297 234.01 247.578L224.532 214.087C221.525 203.459 227.766 192.641 238.472 189.924L298.821 174.614C299.028 174.561 299.235 174.512 299.442 174.466C295.375 172.667 290.715 172.156 286.13 173.319L235.242 186.229Z" fill="#6EDA8C"/>
<g clip-path="url(#clip0_1179_18)">
<line x1="257.059" y1="201.682" x2="267.006" y2="238.807" stroke="white" stroke-width="4.32382"/>
<line x1="280.26" y1="195.465" x2="290.207" y2="232.589" stroke="white" stroke-width="4.32382"/>
<line x1="250.27" y1="231.105" x2="298.996" y2="218.049" stroke="white" stroke-width="4.32382"/>
<path d="M258.616 211.212L259.054 211.629C267.057 219.242 280.297 215.399 282.979 204.684V204.684" stroke="white" stroke-width="4.32382"/>
<path fill-rule="evenodd" clip-rule="evenodd" d="M296.943 210.948C291.306 212.622 284.841 211.375 280.244 206.474L283.397 203.516C286.792 207.135 291.623 208.052 295.824 206.771L296.943 210.948Z" fill="white"/>
<path fill-rule="evenodd" clip-rule="evenodd" d="M248.631 224.989C254.56 223.685 259.786 219.302 261.56 212.616L261.868 211.456L257.689 210.347L257.381 211.508C256.034 216.583 252.027 219.886 247.511 220.807L248.631 224.989Z" fill="white"/>
</g>
<rect x="429.329" y="64" width="95" height="94" rx="20" transform="rotate(15 429.329 64)" fill="#0A89FF"/>
<rect x="429.329" y="64" width="95" height="81.2694" rx="20" transform="rotate(15 429.329 64)" fill="#5DBAF8"/>
<rect x="426.525" y="74.4631" width="95" height="70.4372" rx="20" transform="rotate(15 426.525 74.4631)" fill="#27A3FD"/>
<path d="M459.09 102.602C459.373 101.545 458.236 100.672 457.288 101.22L448.454 106.32C448.101 106.524 447.98 106.975 448.184 107.328L453.284 116.162C453.832 117.11 455.253 116.923 455.536 115.865L456.677 111.608L470.923 115.426C472.235 115.777 473.582 114.999 473.934 113.687C474.285 112.376 473.507 111.028 472.196 110.677L457.949 106.859L459.09 102.602Z" fill="white"/>
<path d="M474.268 121.939C474.551 120.881 475.972 120.694 476.52 121.642L481.62 130.476C481.824 130.829 481.703 131.28 481.35 131.484L472.516 136.584C471.568 137.131 470.431 136.259 470.714 135.201L471.855 130.944L457.608 127.127C456.297 126.776 455.519 125.428 455.87 124.116C456.222 122.805 457.569 122.027 458.881 122.378L473.127 126.196L474.268 121.939Z" fill="white"/>
<rect x="280.74" y="47.0372" width="65.0432" height="64.3585" rx="13.6933" transform="rotate(-4.6075 280.74 47.0372)" fill="#955CFF"/>
<rect x="280.74" y="47.0372" width="65.0432" height="55.6423" rx="13.6933" transform="rotate(-4.6075 280.74 47.0372)" fill="#B68FFF"/>
<rect x="281.336" y="54.4297" width="65.0432" height="48.2259" rx="13.6933" transform="rotate(-4.6075 281.336 54.4297)" fill="#A777FF"/>
<path d="M320.302 78.577L310.964 79.6243L311.294 81.7135L320.631 80.6663L320.302 78.577Z" fill="white"/>
<path d="M321.414 62.0723L318.438 62.384C318.024 61.8356 317.379 61.5004 316.709 61.5706L309.447 62.3314C308.778 62.4015 308.265 62.858 308.049 63.4725L305.073 63.7842C304.571 63.8368 304.239 64.3171 304.33 64.8566L304.991 68.7655C305.041 69.0625 305.215 69.3308 305.46 69.493L310.586 72.8765C311.592 73.9008 312.908 74.5576 314.302 74.6622L314.482 75.7273L312.667 75.9176C312.165 75.9701 311.833 76.4505 311.924 76.9899L312.254 78.9444L319.517 78.1835L319.187 76.229C319.096 75.6896 318.616 75.2943 318.114 75.3469L316.298 75.5371L316.118 74.4719C317.429 74.084 318.481 73.1791 319.112 71.9832L322.936 67.6622C323.119 67.4551 323.197 67.1604 323.147 66.8633L322.487 62.9544C322.395 62.415 321.916 62.0197 321.414 62.0723ZM306.727 68.1062L306.311 65.6436L308.127 65.4534L308.787 69.3623C308.794 69.4033 308.806 69.4418 308.813 69.4839L306.727 68.1062ZM321.252 66.5845L319.696 68.3447C319.689 68.3017 319.688 68.262 319.681 68.221L319.02 64.3121L320.836 64.1219L321.252 66.5845Z" fill="white"/>
<rect x="26.377" y="246.44" width="109.336" height="108.185" rx="19.81" transform="rotate(-4.6075 26.377 246.44)" fill="#FE4E84"/>
<rect x="26.377" y="246.44" width="109.336" height="93.5337" rx="19.81" transform="rotate(-4.6075 26.377 246.44)" fill="#FB98B7"/>
<rect x="27.3784" y="258.867" width="109.336" height="81.0669" rx="19.81" transform="rotate(-4.6075 27.3784 258.867)" fill="#FF7AA3"/>
<path fill-rule="evenodd" clip-rule="evenodd" d="M85.5921 272.947C86.1159 273.04 86.5963 273.298 86.9636 273.683C87.3309 274.068 87.5659 274.56 87.6343 275.087L89.2425 287.482L99.1588 286.196C99.6122 286.137 100.073 286.203 100.491 286.388C100.91 286.573 101.269 286.869 101.531 287.244C101.793 287.618 101.947 288.058 101.976 288.514C102.006 288.971 101.909 289.426 101.698 289.832L87.5607 316.874C87.3148 317.346 86.9248 317.727 86.4473 317.962C85.9699 318.197 85.43 318.273 84.9061 318.18C84.3822 318.087 83.9017 317.829 83.5345 317.444C83.1673 317.059 82.9326 316.566 82.8645 316.039L81.2562 303.643L71.34 304.93C70.8865 304.989 70.4256 304.923 70.0073 304.738C69.589 304.553 69.2294 304.257 68.9676 303.882C68.7058 303.507 68.5519 303.068 68.5225 302.612C68.4932 302.155 68.5896 301.7 68.8012 301.294L82.9381 274.252C83.1845 273.781 83.5747 273.401 84.0521 273.166C84.5294 272.932 85.0686 272.854 85.5921 272.947Z" fill="white"/>
<defs>
<linearGradient id="paint0_linear_1179_18" x1="393.505" y1="243" x2="472.005" y2="81.9995" gradientUnits="userSpaceOnUse">
<stop stop-color="#8CADCB"/>
<stop offset="1" stop-color="#8CADCB" stop-opacity="0"/>
</linearGradient>
<clipPath id="clip0_1179_18">
<rect width="57.651" height="57.651" fill="white" transform="translate(236.242 197.313) rotate(-15)"/>
</clipPath>
</defs>
</svg>
