<svg width="34" height="34" viewBox="0 0 34 34" fill="none" xmlns="http://www.w3.org/2000/svg">
<path fill-rule="evenodd" clip-rule="evenodd" d="M16.6667 0.43042C25.8188 0.43042 33.2362 7.8479 33.2362 17C33.2362 26.1521 25.8188 33.5696 16.6667 33.5696C7.51455 33.5696 0.0970764 26.1521 0.0970764 17C0.0970764 7.8479 7.51455 0.43042 16.6667 0.43042Z" fill="url(#paint0_radial_1_89)"/>
<path d="M10.6278 13.2265C13.9612 9.97087 19.3722 9.97087 22.7055 13.2265L23.1068 13.6214C23.2751 13.7832 23.2751 14.0485 23.1068 14.2104L21.7346 15.5502C21.6505 15.6343 21.5146 15.6343 21.4304 15.5502L20.8803 15.0129C18.5502 12.7411 14.7832 12.7411 12.4531 15.0129L11.8641 15.589C11.7799 15.6731 11.644 15.6731 11.5599 15.589L10.1877 14.2492C10.0194 14.0874 10.0194 13.822 10.1877 13.6602L10.6278 13.2265ZM25.5469 15.9968L26.7702 17.1877C26.9385 17.3495 26.9385 17.6149 26.7702 17.7767L21.2621 23.1553C21.0938 23.3172 20.822 23.3172 20.6602 23.1553L16.7508 19.3366C16.712 19.2977 16.6408 19.2977 16.6019 19.3366L12.6926 23.1553C12.5243 23.3172 12.2524 23.3172 12.0906 23.1553L6.5631 17.7767C6.39482 17.6149 6.39482 17.3495 6.5631 17.1877L7.7864 15.9968C7.95469 15.835 8.22653 15.835 8.38835 15.9968L12.2977 19.8155C12.3366 19.8544 12.4078 19.8544 12.4466 19.8155L16.356 15.9968C16.5243 15.835 16.7961 15.835 16.9579 15.9968L20.8673 19.8155C20.9061 19.8544 20.9773 19.8544 21.0162 19.8155L24.9256 15.9968C25.1068 15.835 25.3786 15.835 25.5469 15.9968Z" fill="white"/>
<defs>
<radialGradient id="paint0_radial_1_89" cx="0" cy="0" r="1" gradientUnits="userSpaceOnUse" gradientTransform="translate(0.0971791 17.0005) scale(33.1392 33.1392)">
<stop stop-color="#5D9DF6"/>
<stop offset="1" stop-color="#006FFF"/>
</radialGradient>
</defs>
</svg>
